<svg width="32" height="32" viewBox="0 0 32 32" fill="none" xmlns="http://www.w3.org/2000/svg">
<path fill-rule="evenodd" clip-rule="evenodd" d="M16 28.8C19.3948 28.8 22.6505 27.4514 25.051 25.051C27.4514 22.6505 28.8 19.3948 28.8 16C28.8 12.6052 27.4514 9.3495 25.051 6.94903C22.6505 4.54857 19.3948 3.2 16 3.2C12.6052 3.2 9.34951 4.54857 6.94905 6.94903C4.54858 9.3495 3.20001 12.6052 3.20001 16C3.20001 19.3948 4.54858 22.6505 6.94905 25.051C9.34951 27.4514 12.6052 28.8 16 28.8ZM21.9312 13.9312C22.2227 13.6294 22.3839 13.2253 22.3803 12.8058C22.3766 12.3862 22.2084 11.9849 21.9117 11.6883C21.6151 11.3916 21.2138 11.2234 20.7943 11.2197C20.3747 11.2161 19.9706 11.3773 19.6688 11.6688L14.4 16.9376L12.3312 14.8688C12.0294 14.5773 11.6253 14.4161 11.2058 14.4197C10.7863 14.4234 10.385 14.5916 10.0883 14.8883C9.79165 15.1849 9.62338 15.5862 9.61973 16.0058C9.61609 16.4253 9.77736 16.8294 10.0688 17.1312L13.2688 20.3312C13.5689 20.6312 13.9757 20.7997 14.4 20.7997C14.8243 20.7997 15.2312 20.6312 15.5312 20.3312L21.9312 13.9312Z" fill="white"/>
</svg>
